<svg id="Layer_1" data-name="Layer 1" xmlns="http://www.w3.org/2000/svg" xmlns:xlink="http://www.w3.org/1999/xlink" viewBox="0 0 555.05 493.26"><defs><linearGradient id="linear-gradient" x1="284.65" y1="207.73" x2="344.89" y2="370.04" gradientUnits="userSpaceOnUse"><stop offset="0" stop-color="#010101" stop-opacity="0"/><stop offset="0.41" stop-color="#010101" stop-opacity="0.41"/><stop offset="0.95" stop-color="#010101"/></linearGradient><linearGradient id="linear-gradient-2" x1="91.5" y1="215.47" x2="173.62" y2="234.66" gradientUnits="userSpaceOnUse"><stop offset="0" stop-color="#010101" stop-opacity="0"/><stop offset="0.95" stop-color="#010101"/></linearGradient><linearGradient id="linear-gradient-3" x1="213.97" y1="81.95" x2="297.17" y2="81.95" gradientUnits="userSpaceOnUse"><stop offset="0" stop-color="#fff" stop-opacity="0"/><stop offset="0.07" stop-color="#fff" stop-opacity="0.22"/><stop offset="0.16" stop-color="#fff" stop-opacity="0.45"/><stop offset="0.25" stop-color="#fff" stop-opacity="0.65"/><stop offset="0.33" stop-color="#fff" stop-opacity="0.8"/><stop offset="0.4" stop-color="#fff" stop-opacity="0.91"/><stop offset="0.46" stop-color="#fff" stop-opacity="0.98"/><stop offset="0.51" stop-color="#fff"/><stop offset="0.56" stop-color="#fff" stop-opacity="0.98"/><stop offset="0.62" stop-color="#fff" stop-opacity="0.91"/><stop offset="0.69" stop-color="#fff" stop-opacity="0.8"/><stop offset="0.76" stop-color="#fff" stop-opacity="0.65"/><stop offset="0.84" stop-color="#fff" stop-opacity="0.46"/><stop offset="0.93" stop-color="#fff" stop-opacity="0.23"/><stop offset="1" stop-color="#fff" stop-opacity="0"/></linearGradient><linearGradient id="linear-gradient-4" x1="418.15" y1="140.72" x2="544.39" y2="105.42" xlink:href="#linear-gradient-2"/><linearGradient id="linear-gradient-5" x1="427.73" y1="104.15" x2="427.92" y2="139.45" gradientUnits="userSpaceOnUse"><stop offset="0" stop-color="#fff" stop-opacity="0"/><stop offset="0.95" stop-color="#fff"/></linearGradient><linearGradient id="linear-gradient-6" x1="404.69" y1="104.68" x2="379.36" y2="328.01" xlink:href="#linear-gradient-2"/><linearGradient id="linear-gradient-7" x1="446.68" y1="291.68" x2="469.7" y2="272.4" xlink:href="#linear-gradient-3"/><linearGradient id="linear-gradient-8" x1="181.28" y1="348.39" x2="208.34" y2="373.43" xlink:href="#linear-gradient-2"/><linearGradient id="linear-gradient-9" x1="352.95" y1="410.9" x2="377.51" y2="407.83" xlink:href="#linear-gradient-3"/><linearGradient id="linear-gradient-10" x1="359.38" y1="403.39" x2="320.24" y2="446.27" xlink:href="#linear-gradient-2"/><linearGradient id="linear-gradient-11" x1="363.3" y1="412.29" x2="451.36" y2="427.26" xlink:href="#linear-gradient-2"/><linearGradient id="linear-gradient-12" x1="77.19" y1="209.28" x2="191.73" y2="225.97" xlink:href="#linear-gradient-3"/><linearGradient id="linear-gradient-13" x1="283.55" y1="-66.8" x2="274.34" y2="1275.45" xlink:href="#linear-gradient-2"/><linearGradient id="linear-gradient-14" x1="419.01" y1="-65.87" x2="409.8" y2="1276.38" xlink:href="#linear-gradient-2"/><linearGradient id="linear-gradient-15" x1="450.66" y1="-65.65" x2="441.45" y2="1276.59" xlink:href="#linear-gradient-2"/><linearGradient id="linear-gradient-16" x1="345.26" y1="-66.37" x2="336.06" y2="1275.87" xlink:href="#linear-gradient-2"/><linearGradient id="linear-gradient-17" x1="175.86" y1="-67.53" x2="166.65" y2="1274.71" xlink:href="#linear-gradient-2"/><linearGradient id="linear-gradient-18" x1="137.7" y1="-67.8" x2="128.49" y2="1274.45" xlink:href="#linear-gradient-2"/><linearGradient id="linear-gradient-19" x1="341.62" y1="357.15" x2="374.24" y2="443.11" xlink:href="#linear-gradient-5"/><linearGradient id="linear-gradient-20" x1="331.61" y1="381.87" x2="371.16" y2="381.87" xlink:href="#linear-gradient-3"/><linearGradient id="linear-gradient-21" x1="341.84" y1="380.7" x2="344.72" y2="386.31" xlink:href="#linear-gradient-3"/><linearGradient id="linear-gradient-22" x1="341.08" y1="375.46" x2="363.81" y2="410" xlink:href="#linear-gradient-2"/><linearGradient id="linear-gradient-23" x1="336.66" y1="378.37" x2="359.4" y2="412.9" xlink:href="#linear-gradient-2"/><linearGradient id="linear-gradient-24" x1="368.77" y1="411.64" x2="180.27" y2="449.34" xlink:href="#linear-gradient-2"/><linearGradient id="linear-gradient-25" x1="208.47" y1="377.28" x2="234.56" y2="420.26" xlink:href="#linear-gradient-2"/><linearGradient id="linear-gradient-26" x1="201.08" y1="387.5" x2="123.18" y2="465.78" xlink:href="#linear-gradient-2"/><linearGradient id="linear-gradient-27" x1="221.25" y1="380.83" x2="226.05" y2="406.16" xlink:href="#linear-gradient-2"/><linearGradient id="linear-gradient-28" x1="293.5" y1="77.53" x2="-254.45" y2="140.27" xlink:href="#linear-gradient"/><linearGradient id="linear-gradient-29" x1="427.09" y1="106.47" x2="290.97" y2="162.01" xlink:href="#linear-gradient-2"/><linearGradient id="linear-gradient-30" x1="286.26" y1="158.55" x2="218.06" y2="266.18" xlink:href="#linear-gradient"/><linearGradient id="linear-gradient-31" x1="250.23" y1="191.83" x2="270.95" y2="239.22" xlink:href="#linear-gradient"/></defs><title>Recycle 2</title><path d="M160,43c-15.56,13.76-28.62,30.38-45.49,42.51C83.77,107.58,41.15,114.29,18.92,145c-23.57,32.53-13.87,78.59,4.64,114.25s45,68,54.43,107c4,16.38,4.8,33.55,10.62,49.37,15.9,43.2,64.14,65.1,109.31,74,27.17,5.33,55.3,7.61,82.55,2.68,25.94-4.69,50.64-15.82,76.92-17.79,24.94-1.87,50.68,4.57,74.69-2.39,12-3.47,22.8-10.12,32.52-17.91,18.35-14.69,33.56-34.38,38.81-57.29,4.18-18.25,1.88-37.3,3.45-55.95,2.53-30.11,15-58.35,27.15-86s24.23-56.17,25.89-86.34-9.18-62.83-34.43-79.41C501.27,73.3,469.34,72.3,442.7,61.92c-22.16-8.63-42.53-20.58-63.49-31.62C337.27,8.21,288.53-4,241.28,4.49,211.44,9.86,182.84,22.82,160,43Z" transform="translate(-5.02 -1.77)" fill="#e9d96f" opacity="0.24" style="isolation:isolate"/><path d="M250.6,245c-11.32,4.55-25.81-2.3-29.47-13.94s4.29-25.55,16.18-28.29c-3.47-7.89,1.54-17.44,8.88-22s16.31-5.26,24.91-5.87a14.83,14.83,0,0,1,21.23-20.52,19.2,19.2,0,0,1,31.48,11.8c4-.25,7.55,3,9,6.75s1.19,7.88.94,11.88a27.14,27.14,0,0,1,4.82,48.85,16.07,16.07,0,0,1-13.48,26.51c1.91,7.49-4.78,15.86-12.5,15.64-6.29-.18-10.94-4.74-16.73-6.42-6.59-1.91-11.35,1.81-17.8,1.16C265.89,269.32,247.69,259.41,250.6,245Z" transform="translate(-5.02 -1.77)" fill="#e9d96f"/><path d="M277,249.89a9.23,9.23,0,0,0-.53-3.27c-.86-2.07-3-3.28-4.93-4.34a32.89,32.89,0,0,1-7.35-4.83,10.77,10.77,0,0,1-3.65-7.76,3.1,3.1,0,0,0-.23-1.77c-.46-.75-1.48-.84-2.33-1-4.1-1-5.72-6.65-3.66-10.34s6.59-5.41,10.82-5.4a14.26,14.26,0,0,1,6.74,1.58c4.66,2.55,7.08,8.09,11.75,10.62a1.36,1.36,0,0,0,2.16-.52c1.72-2.62,2.62-5.95,5.22-7.67a7.93,7.93,0,0,1,6.95-.56,16.25,16.25,0,0,1,5.89,4.07,2.14,2.14,0,0,0,3.58,0c3.2-2.45,7.13-4.34,11.14-3.88s7.82,4,7.47,8a9.83,9.83,0,0,1-3.14,5.79,21.47,21.47,0,0,1-8.68,5.32,8.57,8.57,0,0,1-10.52,12.43,9,9,0,0,1-6.55,8.68c1.23-.32-2.06,9.29-2.67,10.09-2,2.56-5.23,5.08-8.65,4.66C277,268.67,277.18,256.22,277,249.89Z" transform="translate(-5.02 -1.77)" fill="url(#linear-gradient)"/><path d="M133.28,179.2a349.27,349.27,0,0,0-51.39,3.52A1.88,1.88,0,0,0,80,185c-.46,7.63.73,15.25,1.59,22.85,1.91,16.74,2.22,33.62,2.44,50.47a2,2,0,0,0,.29,1.24,1.93,1.93,0,0,0,1.07.54c6.71,1.67,13.75.3,20.52-1.06l15.91-3.21c1.91-.38,4-.91,5.08-2.55a7.17,7.17,0,0,0,.81-3.73q.54-15.56-.2-31.13a25,25,0,0,1,.41-7.68,23.08,23.08,0,0,1,1.92-4.56c2.05-4.06,4.89-7.87,4.83-12.48C134.62,192.4,133.76,179.13,133.28,179.2Z" transform="translate(-5.02 -1.77)" fill="#e9d96f"/><path d="M133.28,179.2a349.27,349.27,0,0,0-51.39,3.52A1.88,1.88,0,0,0,80,185c-.46,7.63.73,15.25,1.59,22.85,1.91,16.74,2.22,33.62,2.44,50.47a2,2,0,0,0,.29,1.24,1.93,1.93,0,0,0,1.07.54c6.71,1.67,13.75.3,20.52-1.06l15.91-3.21c1.91-.38,4-.91,5.08-2.55a7.17,7.17,0,0,0,.81-3.73q.54-15.56-.2-31.13a25,25,0,0,1,.41-7.68,23.08,23.08,0,0,1,1.92-4.56c2.05-4.06,4.89-7.87,4.83-12.48C134.62,192.4,133.76,179.13,133.28,179.2Z" transform="translate(-5.02 -1.77)" fill="url(#linear-gradient-2)"/><path d="M295.38,100.28c-1.23-1.68-2.86-3-4-4.75-2.74-4.17-2.41-9.52-3.15-14.47a31.77,31.77,0,0,0-15.86-22.69c-2.49-1.35-5.15-2.41-7.52-4-5.2-3.39-8.43-9-11.61-14.35a5,5,0,0,0-2-2.21c-1.76-.77-3.88.86-4.29,2.74s.37,3.89,1.19,5.65,1.79,3.59,1.75,5.56c-.08,3.59-3.39,6.13-6.42,8.09q-6.73,4.35-13.77,8.22a1.79,1.79,0,0,1-.9.33c-1.07.16-1.76-1.07-2.21-2.05a26.27,26.27,0,0,0-4-7.19,9.53,9.53,0,0,0-7.15-3.64,1.43,1.43,0,0,0-1.15.41,1.86,1.86,0,0,0-.2.81c-.9,14,5,24.86,12.3,36.15,3.68,5.76,4.54,12.83,6.71,19.33s6.79,13.09,13.57,13.9c3,.37,5.85-.44,8.71-1.22,13-3.6,26.33-7.28,37.74-14.64,1.63-1.06,3.35-2.37,3.92-4.25S296.65,101.91,295.38,100.28Zm-73.27-22.9c-2.66-.33-3.84-6-4.41-8l-1.23-4.54a5,5,0,0,1-.24-1.92,1.76,1.76,0,0,1,1.06-1.48c1.06-.32,2,.74,2.61,1.68,1.31,2.08,2.66,4.21,4,6.3a8,8,0,0,1,1.19,2.24C225.63,73.37,224.73,77.71,222.11,77.38ZM258.3,57.59a2.16,2.16,0,0,1-1.39-1.18,32.41,32.41,0,0,1-2.7-5.4c-.49-1.23-2-4.21-1.39-5.52.45-.9.61-.41.94.24.49,1,.86,2,1.43,2.91,1.14,1.84,2.57,3.51,3.76,5.31a3.91,3.91,0,0,1,.78,2.17A1.43,1.43,0,0,1,258.3,57.59Z" transform="translate(-5.02 -1.77)" fill="#e9d96f"/><path d="M295.38,100.28c-1.23-1.68-2.86-3-4-4.75-2.74-4.17-2.41-9.52-3.15-14.47a31.77,31.77,0,0,0-15.86-22.69c-2.49-1.35-5.15-2.41-7.52-4a25.6,25.6,0,0,1-6.67-6.62c-.49-.66-.94-1.31-1.39-2-1.26-1.89-2.41-3.81-3.55-5.73a5,5,0,0,0-2-2.21c-1.76-.77-3.88.86-4.29,2.74s.37,3.89,1.19,5.65,1.79,3.59,1.75,5.56c-.08,3.59-3.39,6.13-6.42,8.09q-6.73,4.35-13.77,8.22a1.79,1.79,0,0,1-.9.33c-1.07.16-1.76-1.07-2.21-2.05a26.27,26.27,0,0,0-4-7.19,9.53,9.53,0,0,0-7.15-3.64,1.43,1.43,0,0,0-1.15.41,1.86,1.86,0,0,0-.2.81c-.9,14,5,24.86,12.3,36.15,3.68,5.76,4.54,12.83,6.71,19.33s6.79,13.09,13.57,13.9c3,.37,5.85-.44,8.71-1.22,12.55-3.48,25.31-7,36.39-13.82.08,0,.12-.08.16-.08l1.19-.74c1.63-1.06,3.35-2.37,3.92-4.25S296.65,101.91,295.38,100.28Zm-73.27-22.9c-2.66-.33-3.84-6-4.41-8l-1.23-4.54a5,5,0,0,1-.24-1.92,1.76,1.76,0,0,1,1.06-1.48c1.06-.32,2,.74,2.61,1.68,1.31,2.08,2.66,4.21,4,6.3a8,8,0,0,1,1.19,2.24C225.63,73.37,224.73,77.71,222.11,77.38Zm34.8-21a32.41,32.41,0,0,1-2.7-5.4c-.49-1.23-2-4.21-1.39-5.52.45-.9.61-.41.94.24.49,1,.86,2,1.43,2.91s1.39,2,2.08,3l0,0c.58.78,1.15,1.52,1.64,2.29a3.91,3.91,0,0,1,.78,2.17,1.43,1.43,0,0,1-1.43,1.47.57.57,0,0,1-.25-.08s0,0-.08,0A2.36,2.36,0,0,1,256.91,56.41Z" transform="translate(-5.02 -1.77)" opacity="0.65" fill="url(#linear-gradient-3)"/><polygon points="381.05 112.61 409.86 104.33 442.99 113.34 443.68 147.43 419.15 162.78 379.98 149.51 381.05 112.61" fill="#e9d96f"/><polygon points="418.84 121.48 442.99 113.34 443.68 147.43 419.46 160.79 418.84 121.48" fill="url(#linear-gradient-4)"/><polygon points="425.85 112.97 420.89 114.56 428.61 117.86 429.1 123.76 434.55 122.86 434.69 115.62 425.85 112.97" fill="url(#linear-gradient-5)"/><polygon points="382.52 113.83 418.84 121.48 419.46 160.79 380.21 147.81 382.52 113.83" fill="url(#linear-gradient-6)"/><path d="M426.49,254.62a5.32,5.32,0,0,0-2.16,2.57c-.29,1.1.54,2.53,1.66,2.36a5.13,5.13,0,0,1,1.13-.26,1.77,1.77,0,0,1,1.06.66c2.24,2.33,4.6,4.93,4.85,8.15a21.33,21.33,0,0,1-.28,3.9,25.5,25.5,0,0,0,2.71,13.22,76.3,76.3,0,0,0,7.25,11.55l16.7,23.39c1.6,2.25,3.43,4.65,6.12,5.31,3.1.75,6.2-1.11,8.76-3a83.49,83.49,0,0,0,10.85-9.73,5.7,5.7,0,0,0,1.09-8c-6.19-12.86-16.79-23-25.37-34.39-1.76-2.33-3.48-4.78-5.86-6.47-3.16-2.26-7.13-2.95-10.78-4.28s-7.38-3.75-8.23-7.54a4,4,0,0,0-.54-1.63C433.39,247.71,428,253.48,426.49,254.62Z" transform="translate(-5.02 -1.77)" fill="#e9d96f"/><path d="M426.49,254.62a5.32,5.32,0,0,0-2.16,2.57c-.29,1.1.54,2.53,1.66,2.36a5.13,5.13,0,0,1,1.13-.26,1.77,1.77,0,0,1,1.06.66c2.24,2.33,4.6,4.93,4.85,8.15a21.33,21.33,0,0,1-.28,3.9,25.5,25.5,0,0,0,2.71,13.22,76.3,76.3,0,0,0,7.25,11.55l16.7,23.39c1.6,2.25,3.43,4.65,6.12,5.31,3.1.75,6.2-1.11,8.76-3a83.49,83.49,0,0,0,10.85-9.73,5.7,5.7,0,0,0,1.09-8c-6.19-12.86-16.79-23-25.37-34.39-1.76-2.33-3.48-4.78-5.86-6.47-3.16-2.26-7.13-2.95-10.78-4.28s-7.38-3.75-8.23-7.54a4,4,0,0,0-.54-1.63C433.39,247.71,428,253.48,426.49,254.62Z" transform="translate(-5.02 -1.77)" opacity="0.65" fill="url(#linear-gradient-7)"/><path d="M194.74,353a25.34,25.34,0,0,0-10.23-10.49,45.32,45.32,0,0,0-14-4.9,21.45,21.45,0,0,0,13,21c3,1.2,6.26,1.69,9.22,3a10.23,10.23,0,0,1,6.21,7.23c.77-2-.26-4.13-.91-6C197,359.56,196.27,356.13,194.74,353Z" transform="translate(-5.02 -1.77)" fill="#e9d96f"/><path d="M194.74,353a25.34,25.34,0,0,0-10.23-10.49,45.32,45.32,0,0,0-14-4.9,21.45,21.45,0,0,0,13,21c3,1.2,6.26,1.69,9.22,3a10.23,10.23,0,0,1,6.21,7.23c.77-2-.26-4.13-.91-6C197,359.56,196.27,356.13,194.74,353Z" transform="translate(-5.02 -1.77)" fill="url(#linear-gradient-8)"/><path d="M335.45,408.89c1.42,1.4,3.57,2.34,4,4.29.3,1.4-.43,3,.2,4.25a10.63,10.63,0,0,0,1,1.39,7.61,7.61,0,0,1,1.08,3.58l.77,6a24.84,24.84,0,0,0,1.4,6.46,8.46,8.46,0,0,0,4.37,4.76c2.23.9,4.75.47,7.11,0l13.69-2.62a45.11,45.11,0,0,0,7.59-1.91,22.45,22.45,0,0,0,11.83-10.63c.92-1.78,1.58-3.93.76-5.76-.65-1.43-2.06-2.32-3.24-3.36a13.49,13.49,0,0,1-4.26-7.39,34.89,34.89,0,0,0-1-5.11c-.44-1.21-1.19-2.29-1.71-3.47a19.28,19.28,0,0,1-1.25-5c-.45-3-.81-6-1.06-9.09-.2-2.31-.47-4.9-2.27-6.36-1.5,3.75-4.79,6.54-8.42,8.29a48.75,48.75,0,0,1-11.59,3.34c-6.21,1.26-12.55,2.51-18.86,1.82-1.23-.14-4.76-.71-5.34,1-.33,1,1.38,3.67,1.65,4.79C332.82,401.8,332.65,406.12,335.45,408.89Z" transform="translate(-5.02 -1.77)" fill="#e9d96f"/><path d="M388.51,424.53a22.47,22.47,0,0,1-11.85,10.63,42.76,42.76,0,0,1-7.57,1.88c-3.19.62-6.33,1.23-9.48,1.8-1.39.29-2.82.57-4.21.82-2.37.45-4.87.9-7.12,0a8.49,8.49,0,0,1-4.37-4.74,26.52,26.52,0,0,1-1.39-6.46c-.25-2-.53-4-.78-6a7.72,7.72,0,0,0-1.06-3.6,11.55,11.55,0,0,1-1.06-1.39c-.62-1.27.12-2.82-.17-4.25,0-.09,0-.21-.12-.29-.53-1.72-2.54-2.66-3.88-4-2.79-2.74-2.62-7.07-3.48-10.63-.29-1.14-2-3.84-1.64-4.82.58-1.68,4.09-1.1,5.32-.94,6.3.69,12.63-.57,18.85-1.84a47.88,47.88,0,0,0,11.61-3.35,16.43,16.43,0,0,0,8.42-8.26c1.8,1.43,2.05,4.05,2.25,6.33.24,3,.61,6.1,1.06,9.08a20.65,20.65,0,0,0,1.27,5c.53,1.18,1.27,2.25,1.72,3.47a36.23,36.23,0,0,1,.94,5.11,13.59,13.59,0,0,0,4.25,7.41c1.19,1,2.62,1.92,3.23,3.35C390.11,420.61,389.41,422.73,388.51,424.53Z" transform="translate(-5.02 -1.77)" opacity="0.65" fill="url(#linear-gradient-9)"/><path d="M349.94,415.34a3.87,3.87,0,0,1,1.22.74c.84.9.61,2.44,1.42,3.37a5.14,5.14,0,0,1-2.11.64l-3.44.53a5.53,5.53,0,0,1-2.59,0c-2.09-.72-3.45-4.67-2.47-6.61C343.41,411.14,347.93,414.45,349.94,415.34Z" transform="translate(-5.02 -1.77)" fill="url(#linear-gradient-10)"/><path d="M372.41,415c-.29,2-.22,4.09-.84,6-.56,1.75-1.67,3.33-1.91,5.15a1.12,1.12,0,0,0,.07.68c.23.4.81.4,1.27.31a11.77,11.77,0,0,0,6.44-4.09,35.23,35.23,0,0,0,4.14-6.58,2.64,2.64,0,0,0,.45-1.68,3,3,0,0,0-.66-1.15,11.64,11.64,0,0,1-2.36-6.66,24.13,24.13,0,0,0-.12-4c-.26-1.35-1-2.75-2.31-1.83-.93.63-1.05,3.42-1.37,4.45C374.27,408.79,372.87,411.79,372.41,415Z" transform="translate(-5.02 -1.77)" fill="url(#linear-gradient-11)"/><polygon points="116.84 163.71 172.56 189.44 134.23 268.94 79.95 241.85 116.84 163.71" fill="#e9d96f"/><polygon points="116.84 163.71 172.56 189.44 134.23 268.94 79.95 241.85 116.84 163.71" opacity="0.65" fill="url(#linear-gradient-12)"/><path d="M127.35,177.66c3.71,1,7,3.2,10.4,5,9,4.73,19.27,7.1,27.42,13.18" transform="translate(-5.02 -1.77)" fill="none" stroke="#231f20" stroke-miterlimit="10" stroke-width="1.16"/><path d="M124.86,185.68c3.72,1,7,3.19,10.41,5,9,4.73,19.27,7.1,27.42,13.18" transform="translate(-5.02 -1.77)" fill="none" stroke="#231f20" stroke-miterlimit="10" stroke-width="1.16"/><path d="M120.62,196.18c3.71,1,7,3.2,10.4,5,9,4.73,19.28,7.1,27.43,13.18" transform="translate(-5.02 -1.77)" fill="none" stroke="#231f20" stroke-miterlimit="10" stroke-width="1.16"/><path d="M116.38,206.68c3.71,1,7,3.2,10.4,5,9,4.73,19.27,7.11,27.42,13.18" transform="translate(-5.02 -1.77)" fill="none" stroke="#231f20" stroke-miterlimit="10" stroke-width="1.16"/><path d="M112.13,217.19c3.71,1,7,3.19,10.4,5,9,4.73,19.28,7.1,27.43,13.18" transform="translate(-5.02 -1.77)" fill="none" stroke="#231f20" stroke-miterlimit="10" stroke-width="1.16"/><path d="M107.89,227.69c3.71,1,7,3.19,10.4,5,9,4.73,19.27,7.1,27.42,13.18" transform="translate(-5.02 -1.77)" fill="none" stroke="#231f20" stroke-miterlimit="10" stroke-width="1.16"/><path d="M103.65,238.19c3.71,1,7,3.2,10.4,5,9,4.73,19.27,7.11,27.42,13.18" transform="translate(-5.02 -1.77)" fill="none" stroke="#231f20" stroke-miterlimit="10" stroke-width="1.16"/><path d="M282.46,247.19a16.6,16.6,0,0,0-1.16-6.46c-1.22-2.57-3.62-4.32-5.93-6l-11.59-8.27c-3.25-2.32-7.46-4.32-10.1-7.3a2.79,2.79,0,0,1-.84-1.58,1.12,1.12,0,0,1,1-1.24,1.66,1.66,0,0,1,.61.22,58.43,58.43,0,0,1,12.9,9.16c.46.43,1.18.89,1.67.48a1.26,1.26,0,0,0,.34-.69c.51-2.36-.15-4.81-.17-7.22a2.29,2.29,0,0,1,.35-1.48.91.91,0,0,1,1.34-.13,1.39,1.39,0,0,1,.21.65c.58,4,1.68,9.89,4.34,13.15,1.82,2.22,6.39,3.29,8.87,1.72,3-1.88,4.13-7.88,4.9-11.09A40.31,40.31,0,0,0,290,206.5a38.84,38.84,0,0,1-.78-7.73c0-.36.11-.79.45-.91s.79.3,1,.7a18.22,18.22,0,0,1,2,7.23,9.29,9.29,0,0,0,.35,2.58,2.31,2.31,0,0,0,1.86,1.61c1.38.09,2.25-1.46,2.53-2.82.57-2.67,1.92-5,2.75-7.69q1.62-5.21,2.82-10.54c.43-1.92,1.49-5,2.87-1.54.76,1.92-.08,4.2-.71,6a71.53,71.53,0,0,0-2.93,11.34,29,29,0,0,1-.87,5.12,40.47,40.47,0,0,1-2.51,4.48,62.34,62.34,0,0,0-4.53,9.82,26.31,26.31,0,0,0-1.19,5.09c-.07.53.11,4.74-.05,4.84q20.7-13.31,41.39-26.64c.34,4.19-2.94,7.9-6.65,9.87s-7.95,2.7-11.85,4.29c-10.26,4.18-17.4,14.05-20.75,24.62s-3.4,21.88-3,33c.66,18.05,3.05,37.46,15.2,50.82,1.8,2,3.73,5.33,1.54,6.87a4.61,4.61,0,0,1-2.63.55l-37.18.13c12.67-10.24,12.91-21.23,13.48-36.36Q283.63,274.22,282.46,247.19Z" transform="translate(-5.02 -1.77)" fill="#606161"/><path d="M326.78,418.56a6.15,6.15,0,0,1-2.46,5.2l-24.49,18.11a6.05,6.05,0,0,1-3.63,1.22A6.13,6.13,0,0,1,292.56,432l6.95-5.15c-4.13.25-8.26.41-12.39.41a177.92,177.92,0,0,1-49-6.83,6.12,6.12,0,0,1,3.35-11.77,167.4,167.4,0,0,0,60.1,5.68L293,409.08a6.13,6.13,0,0,1,6.37-10.47l24.45,15A6.11,6.11,0,0,1,326.78,418.56Z" transform="translate(-5.02 -1.77)" fill="#e9d96f"/><path d="M449.15,326.74,448,357.15a6.16,6.16,0,0,1-6.13,5.93h-.25a6.14,6.14,0,0,1-5.88-6.38l.32-8.79c-2.33,3.44-4.82,6.79-7.44,10.06a178,178,0,0,1-35.89,34,6,6,0,0,1-3.56,1.14A6.13,6.13,0,0,1,385.65,382a165.48,165.48,0,0,0,33.4-31.68c3-3.76,5.89-7.69,8.55-11.7l-9.49,3.44a6.15,6.15,0,0,1-4.17-11.57l27-9.73a6,6,0,0,1,5.68.77A6.22,6.22,0,0,1,449.15,326.74Z" transform="translate(-5.02 -1.77)" fill="#e9d96f"/><path d="M469.67,190.43a6.13,6.13,0,0,1-8.59,1.18l-7-5.27c1.43,3.88,2.74,7.85,3.93,11.81a179.91,179.91,0,0,1,7.32,48.94,6.19,6.19,0,0,1-6.1,6.18h0a6.09,6.09,0,0,1-6.13-6.1,167.5,167.5,0,0,0-6.83-45.54q-2-6.93-4.66-13.74l-2.66,9.77A6.09,6.09,0,0,1,433,202.2a7.66,7.66,0,0,1-1.64-.2,6.12,6.12,0,0,1-4.29-7.53l7.44-27.72a6.14,6.14,0,0,1,9.61-3.27l24.28,18.36A6.14,6.14,0,0,1,469.67,190.43Z" transform="translate(-5.02 -1.77)" fill="#e9d96f"/><path d="M386.92,108.41a6.21,6.21,0,0,1-5.07,2.66,6.37,6.37,0,0,1-3.48-1.06,167.55,167.55,0,0,0-41.25-20.53c-4.58-1.55-9.28-2.9-14-4l6.54,7.77a6.19,6.19,0,0,1-.74,8.67,6.36,6.36,0,0,1-4,1.43,6.05,6.05,0,0,1-4.7-2.21l-18.44-22a6.13,6.13,0,0,1,2.82-9.77L333.61,60a6.13,6.13,0,0,1,3.8,11.65l-8.3,2.7c4,1,8,2.25,11.94,3.56a177.89,177.89,0,0,1,44.27,22A6.19,6.19,0,0,1,386.92,108.41Z" transform="translate(-5.02 -1.77)" fill="#e9d96f"/><path d="M207.76,102.52A167.87,167.87,0,0,0,170.84,130c-3.43,3.39-6.74,7-9.89,10.63l9.85-2.29a6.13,6.13,0,1,1,2.78,11.94l-27.92,6.54a8.23,8.23,0,0,1-1.39.16,6.12,6.12,0,0,1-6.05-7.11l4.66-30a6.17,6.17,0,0,1,7-5.11,6.09,6.09,0,0,1,5.11,7l-1.35,8.71c2.7-3.15,5.56-6.18,8.55-9.12a178.86,178.86,0,0,1,39.65-29.56,6.13,6.13,0,1,1,5.89,10.75Z" transform="translate(-5.02 -1.77)" fill="#e9d96f"/><path d="M159.31,324.65l-1.63,28.62a6.13,6.13,0,0,1-6.13,5.77,6.41,6.41,0,0,1-2.62-.58l-27.52-13a6.15,6.15,0,0,1,5.24-11.12l7.93,3.76c-2.25-3.51-4.34-7.11-6.3-10.79A179.66,179.66,0,0,1,111.15,281a6.13,6.13,0,1,1,12-2.62,167.07,167.07,0,0,0,16,43.21c2.28,4.26,4.74,8.43,7.4,12.43l.57-10.06a6.14,6.14,0,0,1,12.26.74Z" transform="translate(-5.02 -1.77)" fill="#e9d96f"/><path d="M326.78,418.56a6.15,6.15,0,0,1-2.46,5.2l-24.49,18.11a6.05,6.05,0,0,1-3.63,1.22A6.13,6.13,0,0,1,292.56,432l6.95-5.15c-4.13.25-8.26.41-12.39.41a177.92,177.92,0,0,1-49-6.83,6.12,6.12,0,0,1,3.35-11.77,167.4,167.4,0,0,0,60.1,5.68L293,409.08a6.13,6.13,0,0,1,6.37-10.47l24.45,15A6.11,6.11,0,0,1,326.78,418.56Z" transform="translate(-5.02 -1.77)" fill="url(#linear-gradient-13)"/><path d="M449.15,326.74,448,357.15a6.16,6.16,0,0,1-6.13,5.93h-.25a6.14,6.14,0,0,1-5.88-6.38l.32-8.79c-2.33,3.44-4.82,6.79-7.44,10.06a178,178,0,0,1-35.89,34,6,6,0,0,1-3.56,1.14A6.13,6.13,0,0,1,385.65,382a165.48,165.48,0,0,0,33.4-31.68c3-3.76,5.89-7.69,8.55-11.7l-9.49,3.44a6.15,6.15,0,0,1-4.17-11.57l27-9.73a6,6,0,0,1,5.68.77A6.22,6.22,0,0,1,449.15,326.74Z" transform="translate(-5.02 -1.77)" fill="url(#linear-gradient-14)"/><path d="M469.67,190.43a6.13,6.13,0,0,1-8.59,1.18l-7-5.27c1.43,3.88,2.74,7.85,3.93,11.81a179.91,179.91,0,0,1,7.32,48.94,6.19,6.19,0,0,1-6.1,6.18h0a6.09,6.09,0,0,1-6.13-6.1,167.5,167.5,0,0,0-6.83-45.54q-2-6.93-4.66-13.74l-2.66,9.77A6.09,6.09,0,0,1,433,202.2a7.66,7.66,0,0,1-1.64-.2,6.12,6.12,0,0,1-4.29-7.53l7.44-27.72a6.14,6.14,0,0,1,9.61-3.27l24.28,18.36A6.14,6.14,0,0,1,469.67,190.43Z" transform="translate(-5.02 -1.77)" fill="url(#linear-gradient-15)"/><path d="M386.92,108.41a6.21,6.21,0,0,1-5.07,2.66,6.37,6.37,0,0,1-3.48-1.06,167.55,167.55,0,0,0-41.25-20.53c-4.58-1.55-9.28-2.9-14-4l6.54,7.77a6.19,6.19,0,0,1-.74,8.67,6.36,6.36,0,0,1-4,1.43,6.05,6.05,0,0,1-4.7-2.21l-18.44-22a6.13,6.13,0,0,1,2.82-9.77L333.61,60a6.13,6.13,0,0,1,3.8,11.65l-8.3,2.7c4,1,8,2.25,11.94,3.56a177.89,177.89,0,0,1,44.27,22A6.19,6.19,0,0,1,386.92,108.41Z" transform="translate(-5.02 -1.77)" fill="url(#linear-gradient-16)"/><path d="M207.76,102.52A167.87,167.87,0,0,0,170.84,130c-3.43,3.39-6.74,7-9.89,10.63l9.85-2.29a6.13,6.13,0,1,1,2.78,11.94l-27.92,6.54a8.23,8.23,0,0,1-1.39.16,6.12,6.12,0,0,1-6.05-7.11l4.66-30a6.17,6.17,0,0,1,7-5.11,6.09,6.09,0,0,1,5.11,7l-1.35,8.71c2.7-3.15,5.56-6.18,8.55-9.12a178.86,178.86,0,0,1,39.65-29.56,6.13,6.13,0,1,1,5.89,10.75Z" transform="translate(-5.02 -1.77)" fill="url(#linear-gradient-17)"/><path d="M159.31,324.65l-1.63,28.62a6.13,6.13,0,0,1-6.13,5.77,6.41,6.41,0,0,1-2.62-.58l-27.52-13a6.15,6.15,0,0,1,5.24-11.12l7.93,3.76c-2.25-3.51-4.34-7.11-6.3-10.79A179.66,179.66,0,0,1,111.15,281a6.13,6.13,0,1,1,12-2.62,167.07,167.07,0,0,0,16,43.21c2.28,4.26,4.74,8.43,7.4,12.43l.57-10.06a6.14,6.14,0,0,1,12.26.74Z" transform="translate(-5.02 -1.77)" fill="url(#linear-gradient-18)"/><path d="M329.87,385.08a7.73,7.73,0,0,0-1.6,4.33,5.71,5.71,0,0,0,3.56,4.71,14.3,14.3,0,0,0,6.1.94,66.15,66.15,0,0,0,24.6-5c3.71-1.53,7.41-3.5,9.76-6.75s3-8,.52-11.19c-4.55-5.83-16.31-3.64-22.38-1.94A36.44,36.44,0,0,0,329.87,385.08Z" transform="translate(-5.02 -1.77)" fill="#e9d96f"/><path d="M329.87,385.08a7.73,7.73,0,0,0-1.6,4.33,5.71,5.71,0,0,0,3.56,4.71,14.3,14.3,0,0,0,6.1.94,66.15,66.15,0,0,0,24.6-5c3.71-1.53,7.41-3.5,9.76-6.75s3-8,.52-11.19c-4.55-5.83-16.31-3.64-22.38-1.94A36.44,36.44,0,0,0,329.87,385.08Z" transform="translate(-5.02 -1.77)" fill="url(#linear-gradient-19)"/><path d="M344.39,374.59a50.91,50.91,0,0,0-5.32,3.8c-1.57,1.23-3.13,2.48-4.58,3.85s-2.85,3-2.88,5a5.22,5.22,0,0,0,2.26,4.13,10.72,10.72,0,0,0,4.52,1.74c7,1.25,14.22-.84,20.86-3.48,2-.79,3.95-1.63,5.86-2.58a14.36,14.36,0,0,0,2.89-1.75,8.83,8.83,0,0,0,2.82-9.16,5.53,5.53,0,0,0-.9-1.82c-1.1-1.41-2.8-1.75-4.43-2.18-1.25-.34-2.34-1-3.57-1.38-3.42-1-7.89,0-11.2,1A28.49,28.49,0,0,0,344.39,374.59Z" transform="translate(-5.02 -1.77)" opacity="0.65" fill="url(#linear-gradient-20)"/><path d="M337.7,381.67a2.39,2.39,0,0,0-.94.54,2.24,2.24,0,0,0-.45,1.22,8.65,8.65,0,0,0,1.44,5.85,2.79,2.79,0,0,0,1.45,1.2,2.91,2.91,0,0,0,1.28,0,32,32,0,0,0,3.75-.79,6,6,0,0,0,1.54-.6,6.37,6.37,0,0,0,2-2.37l2.4-4.16a2.15,2.15,0,0,0,.41-1.56,2,2,0,0,0-.64-.86c-1.21-1.16-2.7-2.41-4.35-2.09-1.13.22-2,1.18-3,1.7C341.07,380.53,339.29,381,337.7,381.67Z" transform="translate(-5.02 -1.77)" fill="#e9d96f"/><path d="M337.7,381.67a2.39,2.39,0,0,0-.94.54,2.24,2.24,0,0,0-.45,1.22,8.65,8.65,0,0,0,1.44,5.85,2.79,2.79,0,0,0,1.45,1.2,2.91,2.91,0,0,0,1.28,0,32,32,0,0,0,3.75-.79,6,6,0,0,0,1.54-.6,6.37,6.37,0,0,0,2-2.37l2.4-4.16a2.15,2.15,0,0,0,.41-1.56,2,2,0,0,0-.64-.86c-1.21-1.16-2.7-2.41-4.35-2.09-1.13.22-2,1.18-3,1.7C341.07,380.53,339.29,381,337.7,381.67Z" transform="translate(-5.02 -1.77)" opacity="0.65" fill="url(#linear-gradient-21)"/><path d="M346.32,380l-2.23.86c-.49.19-1,.46-1.1,1s.41.91.84,1.2l1,.67a3.32,3.32,0,0,0,1.06.54,1,1,0,0,0,1.07-.35,1.51,1.51,0,0,0,.12-1.11l-.36-2.52" transform="translate(-5.02 -1.77)" fill="url(#linear-gradient-22)"/><path d="M341.75,383.35a1.58,1.58,0,0,0-2.06.36,2.34,2.34,0,0,0-.32,2.19,4.81,4.81,0,0,0,1.32,1.87,3.64,3.64,0,0,0,1.84,1,1.67,1.67,0,0,0,1.8-.85,1.83,1.83,0,0,0,0-1.2c-.44-1.63-2-2.62-3.5-3.45" transform="translate(-5.02 -1.77)" fill="url(#linear-gradient-23)"/><path d="M345.13,401.72a2.31,2.31,0,0,0-.28,1.55,9.42,9.42,0,0,0,2.7,6.3c1.67,1.55,4,2.17,6,3.19a16,16,0,0,1,5.93,5.27,1.69,1.69,0,0,1,.36,1,1.73,1.73,0,0,1-.49.86,34.72,34.72,0,0,1-4.94,4.91c-1.68,1.27-3.81,2.49-4.05,4.58-.29,2.41,2.16,4.17,4.29,5.39,1.19.66,2.33,1.31,3.48,2,.81.45,1.75,1.18,1.47,2.08-1.39.29-2.82.57-4.21.82-2.37.45-4.87.9-7.12,0a8.49,8.49,0,0,1-4.37-4.74,26.52,26.52,0,0,1-1.39-6.46c-.25-2-.53-4-.78-6a7.72,7.72,0,0,0-1.06-3.6,11.55,11.55,0,0,1-1.06-1.39c-.62-1.27.12-2.82-.17-4.25,0-.09,0-.21-.12-.29,1.23.41,3.39.33,3.92-.74-3-2.49-7.23-2.16-9.19-6.41a15.86,15.86,0,0,1-1-4.17c-.36-2.66-.73-5.28-1.1-7.94a94.21,94.21,0,0,0,15.17.7,47.27,47.27,0,0,0,15.17-3.44c-.17,3-3.36,4.71-6.1,5.85-3.27,1.35-6.5,2.74-9.77,4.09A2.7,2.7,0,0,0,345.13,401.72Z" transform="translate(-5.02 -1.77)" fill="url(#linear-gradient-24)"/><path d="M224.2,383.24c-.89,1.68-2.18,3.51-1.51,5.29.19.52.55,1,.74,1.5.6,1.65-.52,3.37-1,5.05a7.44,7.44,0,0,0,1.36,6.74c-1.14.88-1.36,2.5-1.27,3.93a12,12,0,0,1,0,4.27,8.47,8.47,0,0,1-2.52,3.47c-.9.88-2.21,1.82-3.3,1.18a2.94,2.94,0,0,1-1-1.24l-2.14-4.07c-2.57-4.88-5.22-10.32-3.95-15.68a23,23,0,0,1,2-5l3.14-6.25a10.49,10.49,0,0,1,3.19-4.32C221.81,375.59,226.53,378.87,224.2,383.24Z" transform="translate(-5.02 -1.77)" fill="#e9d96f"/><path d="M224.2,383.24c-.89,1.68-2.18,3.51-1.51,5.29.19.52.55,1,.74,1.5.6,1.65-.52,3.37-1,5.05a7.44,7.44,0,0,0,1.36,6.74c-1.14.88-1.36,2.5-1.27,3.93a12,12,0,0,1,0,4.27,8.47,8.47,0,0,1-2.52,3.47c-.9.88-2.21,1.82-3.3,1.18a2.94,2.94,0,0,1-1-1.24l-2.14-4.07c-2.57-4.88-5.22-10.32-3.95-15.68a23,23,0,0,1,2-5l3.14-6.25a10.49,10.49,0,0,1,3.19-4.32C221.81,375.59,226.53,378.87,224.2,383.24Z" transform="translate(-5.02 -1.77)" fill="url(#linear-gradient-25)"/><path d="M201.06,369.81c-4-.83-7.83-2.52-11.78-3.68s-8.24-1.78-12.13-.43c-5,1.75-8.44,6.45-10.71,11.27a48.54,48.54,0,0,0-2,36c1.84,5.38,5.25,10.92,10.77,12.29,2.69.67,5.59.26,8.24,1.08s4.77,2.82,7.28,4c5.53,2.62,12.33,1,17.31-2.57s8.49-8.75,11.81-13.89a9.65,9.65,0,0,1,0-9.55,3.19,3.19,0,0,1-3.38.25,5.67,5.67,0,0,1-2.39-2.59,9.33,9.33,0,0,1,5-12.93,6,6,0,0,1,0-6.2,17.54,17.54,0,0,1,4.42-4.76,20.47,20.47,0,0,0-15.67-6.49C205.5,371.72,203.38,370.29,201.06,369.81Z" transform="translate(-5.02 -1.77)" fill="#e9d96f"/><path d="M201.06,369.81c-4-.83-7.83-2.52-11.78-3.68s-8.24-1.78-12.13-.43c-5,1.75-8.44,6.45-10.71,11.27a48.54,48.54,0,0,0-2,36c1.84,5.38,5.25,10.92,10.77,12.29,2.69.67,5.59.26,8.24,1.08s4.77,2.82,7.28,4c5.53,2.62,12.33,1,17.31-2.57s8.49-8.75,11.81-13.89a9.65,9.65,0,0,1,0-9.55,3.19,3.19,0,0,1-3.38.25,5.67,5.67,0,0,1-2.39-2.59,9.33,9.33,0,0,1,5-12.93,6,6,0,0,1,0-6.2,17.54,17.54,0,0,1,4.42-4.76,20.47,20.47,0,0,0-15.67-6.49C205.5,371.72,203.38,370.29,201.06,369.81Z" transform="translate(-5.02 -1.77)" fill="url(#linear-gradient-26)"/><path d="M219.1,389.07l4.28,2a8.4,8.4,0,0,1-1.29-3.45c0-1.44,5.36-5.59,1.45-9.49C223.54,378.11,217.69,380.17,219.1,389.07Z" transform="translate(-5.02 -1.77)" fill="url(#linear-gradient-27)"/><path d="M259.4,61.84a7.11,7.11,0,0,1-.7-1.59,13.56,13.56,0,0,1-.73-2.78c-.21-1.23-.33-2.5-.45-3.72-.08-.7-.12-1.39-.21-2.09-.16-2-.32-3.92-.53-5.88" transform="translate(-5.02 -1.77)" fill="none"/><path d="M297,106c-.57,1.88-2.29,3.19-3.92,4.25l-1.19.74s-.08,0-.16.08c-.41.2-.86.37-1.31.57a19.25,19.25,0,0,1-3.88-8.75c-.45.82-1.68.29-2.37-.32-3.15-2.87-6.38-5.81-8.06-9.74C273,85.52,276,76,270.85,69.73c-3.27-4-9.24-5.6-12.15-9.48a8.06,8.06,0,0,1-1.3-2.33,1.62,1.62,0,0,0,.65-.41c.78-.82.65-2.54.16-3.72-.28-.7-.65-1.43-.9-2.13l0,0A3.78,3.78,0,0,1,257,49.5a2.81,2.81,0,0,1,1.18-1.72,25.6,25.6,0,0,0,6.67,6.62c2.37,1.56,5,2.62,7.52,4a31.77,31.77,0,0,1,15.86,22.69c.74,5,.41,10.3,3.15,14.47,1.15,1.72,2.78,3.07,4,4.75S297.54,104,297,106Z" transform="translate(-5.02 -1.77)" fill="url(#linear-gradient-28)"/><polygon points="398.66 107.4 432.19 117.04 418.84 121.48 381.05 112.61 398.66 107.4" fill="url(#linear-gradient-29)"/><path d="M280,169.11c2.31,0,4.85,1,5.73,3.13a5.29,5.29,0,0,1,8.66-3.48c-2.87-2.7-4.16-6.66-5-10.5a6.2,6.2,0,0,0-1.09-2.75c-1-1.16-2.68-1.38-4.21-1.36a18.35,18.35,0,0,0-10,2.89,13.41,13.41,0,0,0-5.83,8.51c-.3,1.65.32,9.85,3.14,8.65.48-.21,1.14-1.57,1.55-2a10.59,10.59,0,0,1,2-1.59A10,10,0,0,1,280,169.11Z" transform="translate(-5.02 -1.77)" fill="url(#linear-gradient-30)"/><path d="M246.23,209.28a8,8,0,0,1,4.93-6.85,13.32,13.32,0,0,1,8.73-.34,9.68,9.68,0,0,1,6.54-11.94,17.24,17.24,0,0,0-16.09-4.73,26.61,26.61,0,0,0-6,2.4c-2.56,1.32-5.13,2.91-6.58,5.4-1.91,3.27-2.29,6.6,1,8.35C242.82,203.72,244.54,204.55,246.23,209.28Z" transform="translate(-5.02 -1.77)" fill="url(#linear-gradient-31)"/></svg>