<svg id="Layer_1" data-name="Layer 1" xmlns="http://www.w3.org/2000/svg" xmlns:xlink="http://www.w3.org/1999/xlink" viewBox="0 0 428.7 313.21"><defs><linearGradient id="linear-gradient" x1="38.35" y1="85.46" x2="6.72" y2="156.5" gradientUnits="userSpaceOnUse"><stop offset="0" stop-opacity="0"/><stop offset="0.91" stop-opacity="0.8"/><stop offset="1"/></linearGradient><linearGradient id="linear-gradient-2" x1="330.28" y1="69.3" x2="380.58" y2="87.88" gradientUnits="userSpaceOnUse"><stop offset="0" stop-opacity="0"/><stop offset="0.52" stop-opacity="0.41"/><stop offset="0.91" stop-opacity="0.8"/><stop offset="1"/></linearGradient><linearGradient id="linear-gradient-3" x1="221.36" y1="79.85" x2="301.18" y2="79.85" xlink:href="#linear-gradient"/><linearGradient id="linear-gradient-4" x1="299.1" y1="88.24" x2="341.75" y2="88.24" gradientUnits="userSpaceOnUse"><stop offset="0" stop-color="#ecc4d7"/><stop offset="0.42" stop-color="#efd4d1"/><stop offset="1" stop-color="#f2eac9"/></linearGradient><linearGradient id="linear-gradient-5" x1="311.63" y1="94.73" x2="316.98" y2="76.71" xlink:href="#linear-gradient-2"/><linearGradient id="linear-gradient-6" x1="308.22" y1="83.88" x2="322.95" y2="85.57" xlink:href="#linear-gradient-2"/><linearGradient id="linear-gradient-7" x1="306.92" y1="88.81" x2="320.66" y2="88.81" gradientUnits="userSpaceOnUse"><stop offset="0" stop-color="#fff"/><stop offset="1" stop-color="#fff" stop-opacity="0"/></linearGradient><linearGradient id="linear-gradient-8" x1="320.42" y1="85.95" x2="346.83" y2="85.95" xlink:href="#linear-gradient-2"/><linearGradient id="linear-gradient-9" x1="335.7" y1="64.53" x2="332.32" y2="98.03" xlink:href="#linear-gradient-2"/><linearGradient id="linear-gradient-10" x1="325.4" y1="104.86" x2="340.36" y2="104.86" xlink:href="#linear-gradient-2"/><linearGradient id="linear-gradient-11" x1="130.22" y1="128.25" x2="134.44" y2="162.6" xlink:href="#linear-gradient"/><linearGradient id="linear-gradient-12" x1="148.03" y1="101.06" x2="137.33" y2="127.25" xlink:href="#linear-gradient"/><linearGradient id="linear-gradient-13" x1="49.03" y1="85.43" x2="70.52" y2="85.43" xlink:href="#linear-gradient-4"/><linearGradient id="linear-gradient-14" x1="32.55" y1="171.48" x2="57.27" y2="171.48" xlink:href="#linear-gradient-4"/><linearGradient id="linear-gradient-15" x1="21.88" y1="206.66" x2="69.57" y2="206.66" xlink:href="#linear-gradient"/><linearGradient id="linear-gradient-16" x1="344.24" y1="116.41" x2="324.81" y2="136.4" xlink:href="#linear-gradient-2"/><linearGradient id="linear-gradient-17" x1="355.12" y1="143.37" x2="374.78" y2="143.37" xlink:href="#linear-gradient-4"/><linearGradient id="linear-gradient-18" x1="224.45" y1="77.93" x2="230.36" y2="102.99" xlink:href="#linear-gradient-7"/><linearGradient id="linear-gradient-19" x1="225.15" y1="80.03" x2="238.94" y2="145.07" xlink:href="#linear-gradient"/><linearGradient id="linear-gradient-20" x1="237.69" y1="79.67" x2="243.89" y2="123.88" xlink:href="#linear-gradient"/><linearGradient id="linear-gradient-21" x1="239.03" y1="79.48" x2="245.23" y2="123.7" xlink:href="#linear-gradient"/><linearGradient id="linear-gradient-22" x1="350.68" y1="150.02" x2="371.51" y2="150.02" xlink:href="#linear-gradient-4"/><linearGradient id="linear-gradient-23" x1="255.05" y1="120.57" x2="263.48" y2="151.35" xlink:href="#linear-gradient"/><linearGradient id="linear-gradient-24" x1="322.27" y1="133.5" x2="308.85" y2="150.99" xlink:href="#linear-gradient-2"/><linearGradient id="linear-gradient-25" x1="309.96" y1="100.95" x2="300.67" y2="106.51" xlink:href="#linear-gradient"/><linearGradient id="linear-gradient-26" x1="352.93" y1="156.47" x2="347.86" y2="167.35" xlink:href="#linear-gradient-7"/><linearGradient id="linear-gradient-27" x1="363.34" y1="70.22" x2="358.27" y2="81.11" xlink:href="#linear-gradient-7"/><linearGradient id="linear-gradient-28" x1="261.94" y1="25.92" x2="256.05" y2="38.58" xlink:href="#linear-gradient-7"/><linearGradient id="linear-gradient-29" x1="221.36" y1="28.44" x2="215.46" y2="41.1" xlink:href="#linear-gradient-7"/><linearGradient id="linear-gradient-30" x1="275.81" y1="154.49" x2="262.58" y2="93.67" xlink:href="#linear-gradient"/></defs><title>76. Diving</title><path d="M44.91,94.18c-15.85,10.23-16.23,41.5-16.23,41.5s-4.62,2-7.63.18-8.31-1.66-10.81,2.57A9.9,9.9,0,0,1,5,142.86a6.35,6.35,0,0,1-1.09.29C-14,114.6,35.18,84.53,35.18,84.53,38.23,83,46,73.34,52.27,73.62a7.09,7.09,0,0,1,5.25,2.15,5.57,5.57,0,0,1,1.37,3S60.77,84,44.91,94.18Z" transform="translate(0 -19.95)" fill="#e9d96f"/><path d="M44.91,94.18c-15.85,10.23-16.23,41.5-16.23,41.5s-4.62,2-7.63.18-8.31-1.66-10.81,2.57A9.9,9.9,0,0,1,5,142.86C-9.83,114.86,37.32,86,37.32,86c3-1.56,10.8-11.19,17.08-10.91a9.06,9.06,0,0,1,3.12.65,5.57,5.57,0,0,1,1.37,3S60.77,84,44.91,94.18Z" transform="translate(0 -19.95)" fill="url(#linear-gradient)"/><path d="M423.6,294.65h0c-4.51,12.07-12.09,22.42-23.14,29.55-38.9,25.08-115.39-11.82-182.7.81-56,10.5-137.51,4.33-172.85-27.71-7.16-6.5-12.43-14.06-15.2-22.76C14.08,225.42,69.08,206,81.57,95.84c3-26.42,17.82-50.23,40.7-63.79a85.62,85.62,0,0,1,38.15-11.68c58.28-4.14,67.9,24.35,138.68,10.82S389,55.64,389,89,374.73,156.17,405,195.12C426.74,223,435,264.26,423.6,294.65Z" transform="translate(0 -19.95)" fill="#e9d96f" opacity="0.27" style="isolation:isolate"/><path d="M351.14,93.87c0,11.51-3.6,10.93-4.15,12.25-.42,1-6.91,3.11-10.84,3.68a5.85,5.85,0,0,1-2.71,0c-1.85-.9-.93-3.88-.16-5.86s5.46-1.9,10.13-4.81-2.24-52.78-2.25-58.38,6.61-3.59,6.61-3.59,0,.1,0,.28C348.07,41.23,351.14,82.89,351.14,93.87Z" transform="translate(0 -19.95)" fill="#e9d96f"/><path d="M351.14,93.87c0,11.51-3.6,10.93-4.15,12.25-.42,1-6.91,3.11-10.84,3.68-.89-1.24-.13-3.63.52-5.3.77-2,5.46-1.89,10.13-4.8s-2.24-52.78-2.25-58.39c0-2.77,1.61-3.68,3.24-3.88C348.07,41.23,351.14,82.89,351.14,93.87Z" transform="translate(0 -19.95)" fill="url(#linear-gradient-2)"/><path d="M138.12,79.06c7.22-6.67,16.14-11.2,25.19-15,17.41-7.36,36.61-12.43,55.17-8.84,8.06,1.56,15.73,4.71,23.21,8.12,15.94,7.26,31.65,16.09,43,29.44s17.65,32,12.57,48.79c-4,13.17-14.5,24.22-15.65,37.93-1.25,14.81,8.7,28,18.17,39.43,2.45,3,5.06,6,8.64,7.47,4.09,1.62,8.68.8,13.06.39A65.06,65.06,0,0,1,391.8,282c1.08,7.27.56,15.58-4.74,20.67-3.42,3.27-8.23,4.61-12.89,5.4-23.12,3.94-46.57-2.62-69.33-8.28-30.62-7.62-62.33-13.74-93.6-9.5-26.41,3.59-52.86,14.49-78.88,8.72-11.73-2.6-23.54-9.63-27.17-21.08-1.78-5.62-1.4-11.72-.21-17.49,5.23-25.43,24.71-45,41.76-64.62,4.3-4.93,8.77-10.81,7.88-17.29-1.13-8.21-9.86-12.6-16.49-17.56C112.15,141.45,115.57,99.89,138.12,79.06Z" transform="translate(0 -19.95)" fill="#e9d96f" opacity="0.27" style="isolation:isolate"/><polygon points="276.37 71.23 301.18 75.06 297.08 77.79 285.29 77.79 224.52 88.47 221.36 82.48 276.37 71.23" fill="#e9d96f"/><polygon points="276.37 71.23 301.18 75.06 297.08 77.79 285.29 77.79 224.52 88.47 221.36 82.48 276.37 71.23" fill="url(#linear-gradient-3)"/><path d="M299.88,101.07s7.57-7.37,10.58-21.16,18.1-14.6,23.6-11.72,10.23,12.41,6.16,25.53-18.31,10.8-24.79,8.19a11.1,11.1,0,0,0-5,7.35S295.56,112.3,299.88,101.07Z" transform="translate(0 -19.95)" fill="url(#linear-gradient-4)"/><path d="M320.24,82.35c-.13,1.2-.13,2.53-1,3.4a4.48,4.48,0,0,1-1.45.88L307,91.46a1.84,1.84,0,0,1-.18-2c.29-.66.75-1.23,1-1.9a8.93,8.93,0,0,0,.25-2.93,17.87,17.87,0,0,1,.43-3.25c.66-3.16,2-6.63,4.93-7.91a10.93,10.93,0,0,1,3.82-.67c1.85-.11,8.68-1.57,7.59,1.49-.4,1.12-2.32,2.32-3,3.44A11.4,11.4,0,0,0,320.24,82.35Z" transform="translate(0 -19.95)" fill="#e9d96f"/><path d="M320.24,82.35c-.13,1.2-.13,2.53-1,3.4a4.48,4.48,0,0,1-1.45.88L307,91.46a1.84,1.84,0,0,1-.18-2c.29-.66.75-1.23,1-1.9a8.93,8.93,0,0,0,.25-2.93,17.87,17.87,0,0,1,.43-3.25c.66-3.16,2-6.63,4.93-7.91a10.93,10.93,0,0,1,3.82-.67c1.85-.11,8.68-1.57,7.59,1.49-.4,1.12-2.32,2.32-3,3.44A11.4,11.4,0,0,0,320.24,82.35Z" transform="translate(0 -19.95)" fill="url(#linear-gradient-5)"/><path d="M309.22,77.86a21.53,21.53,0,0,0,7.87,2.34l2.77.9-1.44,10.09-3-.67s-5.84-1.25-7.63-2.77S305.79,81.31,309.22,77.86Z" transform="translate(0 -19.95)" fill="#e9d96f"/><path d="M309.22,77.86a21.53,21.53,0,0,0,7.87,2.34l2.77.9-1.44,10.09-3-.67s-5.84-1.25-7.63-2.77S305.79,81.31,309.22,77.86Z" transform="translate(0 -19.95)" fill="url(#linear-gradient-6)"/><path d="M306.92,86.44s5.54,2.22,9.51,2.16,4.23,2.59,4.23,2.59-5.3-.38-6.41-1S307.51,88.79,306.92,86.44Z" transform="translate(0 -19.95)" fill="url(#linear-gradient-7)" style="isolation:isolate"/><path d="M323.42,76.55c-2.25.12-7.12,3.27-6.7,6.4s-1.65,5.76,1.32,9.11,6.24,4.46,12,2.15,6.27-4.21,9.06-.91,6.76-.66,6.76-.66,2-8,.32-12.09C344.37,76,326.47,76.39,323.42,76.55Z" transform="translate(0 -19.95)" fill="#e9d96f"/><path d="M326.51,76.55c-1.95.12-6.18,3.27-5.82,6.4s-1.43,5.76,1.15,9.11,5.42,4.46,10.41,2.15,5.45-4.21,7.87-.91,5.87-.66,5.87-.66,1.7-8,.27-12.09C344.69,76,329.15,76.39,326.51,76.55Z" transform="translate(0 -19.95)" fill="url(#linear-gradient-8)"/><path d="M324.77,78.6c4.37-1,18.41-1,20.63,2.59s.06,11.36-1,11.36-2.3,1.11-6.45-1.76-7.24,2.45-11.36,2.51C317.6,93.44,320.4,79.62,324.77,78.6Z" transform="translate(0 -19.95)" fill="url(#linear-gradient-9)"/><path d="M325.62,99.15a8.46,8.46,0,0,0-2.87,8.66,7.61,7.61,0,0,0,8.22,5.1,7.89,7.89,0,0,0,6.42-7.31,15.52,15.52,0,0,0-1-5.15c-.76-2.46-1.45-3.83-4.14-3.72A11.06,11.06,0,0,0,325.62,99.15Z" transform="translate(0 -19.95)" fill="#e9d96f"/><path d="M325.62,99.15a8.46,8.46,0,0,0-2.87,8.66,7.61,7.61,0,0,0,8.22,5.1,7.89,7.89,0,0,0,6.42-7.31,15.52,15.52,0,0,0-1-5.15c-.76-2.46-1.45-3.83-4.14-3.72A11.06,11.06,0,0,0,325.62,99.15Z" transform="translate(0 -19.95)" fill="#e9d96f"/><path d="M328.57,99.15a8.48,8.48,0,0,0-2.87,8.66,7.61,7.61,0,0,0,8.22,5.1,7.9,7.9,0,0,0,6.43-7.31,15.78,15.78,0,0,0-1-5.15c-.77-2.46-1.45-3.83-4.15-3.72A11.1,11.1,0,0,0,328.57,99.15Z" transform="translate(0 -19.95)" fill="#e9d96f"/><path d="M328.57,99.15a8.48,8.48,0,0,0-2.87,8.66,7.61,7.61,0,0,0,8.22,5.1,7.9,7.9,0,0,0,6.43-7.31,15.78,15.78,0,0,0-1-5.15c-.77-2.46-1.45-3.83-4.15-3.72A11.1,11.1,0,0,0,328.57,99.15Z" transform="translate(0 -19.95)" fill="url(#linear-gradient-10)"/><path d="M201,115.42s-19.84-1.93-32.3,7.71-30.34,23.75-46.55,20-67.88,17-67.88,17-.22,9.17,4.59,9.07l94-4s51.57-6,60.51-10.95C213.44,154.31,210.06,131.33,201,115.42Z" transform="translate(0 -19.95)" fill="#e9d96f"/><path d="M201,115.42s-19.84-1.93-32.3,7.71-30.34,23.75-46.55,20-67.88,17-67.88,17-.22,9.17,4.59,9.07l94-4s51.57-6,60.51-10.95C213.44,154.31,210.06,131.33,201,115.42Z" transform="translate(0 -19.95)" fill="url(#linear-gradient-11)"/><path d="M70.52,84.53s-5.81,6.6-5.54,9.28L111.65,114s16.6,5.71,23.45,9.92,50.49,34.7,74.75,24.05S201,115.42,201,115.42s-21.78-4.94-44.49-3.7-25.49-10.08-33.81-14.12S70.52,84.53,70.52,84.53Z" transform="translate(0 -19.95)" fill="#e9d96f"/><path d="M70.52,84.53s-5.81,6.6-5.54,9.28L111.65,114s16.6,5.71,23.45,9.92,50.49,34.7,74.75,24.05S201,115.42,201,115.42s-21.78-4.94-44.49-3.7-25.49-10.08-33.81-14.12S70.52,84.53,70.52,84.53Z" transform="translate(0 -19.95)" fill="url(#linear-gradient-12)"/><path d="M70.52,84.53,57.31,78l-6.7,6.54L49,88.08s14.52-.69,18.43,4.79Z" transform="translate(0 -19.95)" fill="url(#linear-gradient-13)"/><path d="M54.3,160.19l-21.75,6.38,3.74,16.21s2.5-10,8.87-12.47a46.44,46.44,0,0,1,10.63-3S60,162.68,54.3,160.19Z" transform="translate(0 -19.95)" fill="url(#linear-gradient-14)"/><path d="M73.14,233.48c0,.41-2.49,1.38-10,2.63s-13.3,9.84-13,11.5-1.66,2.49-1.66,2.49c-7.48.56-19.4-15-19.81-24.66s-3.75-28.67-6.59-41.84c-1.34-6.2-1.16-9.23-.21-11.09,1.06-2.1,3.08-2.71,5-4.69,3.6-3.74,9-2.21,9-2.21-.87,32.83,12.5,50.41,24.42,59,4.47,3.22,7.4,5.21,9.31,6.47h0C72.76,233.17,73.14,233.22,73.14,233.48Z" transform="translate(0 -19.95)" fill="#e9d96f"/><path d="M69.57,231.08c-1.45.33-3.3.69-5.65,1.09-7.48,1.25-15.5,11.68-15.22,13.34S47,248,47,248c-7.48.56-17.2-16.8-17.61-26.5s-3.75-28.67-6.59-41.84a35.67,35.67,0,0,1-1-7.15c1.06-2.1,3.08-2.71,5-4.69,3.6-3.74,9-2.21,9-2.21-.87,32.83,12.5,50.41,24.42,59C64.73,227.83,67.66,229.82,69.57,231.08Z" transform="translate(0 -19.95)" fill="url(#linear-gradient-15)"/><path d="M313.19,113s22.33,16.59,37,19.64l6.94,4.25-2,7.39-23.5-2.17s-29.36-11.89-30.22-13.47S301.68,109.15,313.19,113Z" transform="translate(0 -19.95)" fill="#e9d96f"/><path d="M357.14,136.88l-2,7.39-23.5-2.17s-29.36-11.89-30.22-13.47c-.36-.66-.36-4.21.6-7.82a8.79,8.79,0,0,0,.17,3.4c.85,1.58,30.21,13.47,30.21,13.47l23.51,2.17.87-3.2Z" transform="translate(0 -19.95)" fill="url(#linear-gradient-16)"/><path d="M357.14,136.88s11.56-2.74,14.57,1.59c1.78,2.57,2.65,6.78,3.05,9.77a2.19,2.19,0,0,1-2.91,2.35l-6.6-.57-3.61-5.31-6.52-.44Z" transform="translate(0 -19.95)" fill="url(#linear-gradient-17)"/><path d="M172.62,93.22l1.68,7a10.68,10.68,0,0,0,12.15,8L271.89,94s8.92-3.4,8.57-11.82-4.95-16.67-19.33-15.11c-10.95,1.18-58.1,9.33-80,13.15A10.68,10.68,0,0,0,172.62,93.22Z" transform="translate(0 -19.95)" fill="#e9d96f"/><path d="M280.46,82.17c.35,8.42-8.57,11.82-8.57,11.82l-85.44,14.28a10.68,10.68,0,0,1-12.15-8l-.18-.77-.21-.86-1.29-5.37a10.68,10.68,0,0,1,8.55-13c21.86-3.82,69-12,80-13.15,13-1.41,18,5.15,19.09,12.63A22.87,22.87,0,0,1,280.46,82.17Z" transform="translate(0 -19.95)" fill="url(#linear-gradient-18)" style="isolation:isolate"/><path d="M280.46,82.17c.35,8.42-8.57,11.82-8.57,11.82l-85.44,14.28a10.68,10.68,0,0,1-12.15-8l-.18-.77c.79.74,3.77,1.36,14.24-.86,16.33-3.48,81.27-14.06,81.27-14.06s8.39-.8,10.59-4.84A22.87,22.87,0,0,1,280.46,82.17Z" transform="translate(0 -19.95)" fill="url(#linear-gradient-19)"/><rect x="227.59" y="66.84" width="22.37" height="41.13" rx="5.72" transform="matrix(0.99, -0.16, 0.16, 0.99, -11.09, 20.34)" fill="#e9d96f"/><path d="M247.54,106.8l-10.78,1.79a5.71,5.71,0,0,1-6.58-4.71l-4.87-29.29a5.75,5.75,0,0,1,3.38-6.19A5.84,5.84,0,0,1,230,68l10.78-1.79a5.73,5.73,0,0,1,6.58,4.71l4.86,29.29A5.72,5.72,0,0,1,247.54,106.8Z" transform="translate(0 -19.95)" fill="url(#linear-gradient-20)"/><path d="M247.54,106.8l-10.78,1.79a5.75,5.75,0,0,1-3.09-.34L227.8,72.86a6.34,6.34,0,0,1,.89-4.46A5.84,5.84,0,0,1,230,68l10.78-1.79a5.73,5.73,0,0,1,6.58,4.71l4.86,29.29A5.72,5.72,0,0,1,247.54,106.8Z" transform="translate(0 -19.95)" fill="url(#linear-gradient-21)"/><polygon points="281.21 56.18 280.15 49.43 281.93 49.2 282.92 55.9 281.21 56.18" fill="#e9d96f"/><path d="M423.6,294.65h0c-4.51,12.07-12.09,22.42-23.14,29.55-10.79,7-24.48,9.14-40,8.94-40.58-.52-94-17.26-142.65-8.13a304.47,304.47,0,0,1-67.46,4.41c-41.51-1.77-82.85-11.69-105.39-32.12,0,0,162.36-31.87,254.1-12.74S423.6,294.65,423.6,294.65Z" transform="translate(0 -19.95)" fill="#e9d96f" opacity="0.27" style="isolation:isolate"/><path d="M112,288.05c-3.06-5.24-7.66-9.39-11.43-14.14-9.29-11.69-13-29.55-3.84-41.34a35.13,35.13,0,0,1,10.52,14.25c1.55,3.91,3.66,9,7.85,8.67s5.4-5.56,5.68-9.62l1.64-23c.24-3.35.81-7.25,3.74-8.89a7.21,7.21,0,0,1,5-.53c7.47,1.55,11.66,10.09,11.29,17.7s-4.05,14.61-7.06,21.61a133.63,133.63,0,0,0-6.81,20c-.6,2.34-1.13,4.84-.38,7.14s3.27,4.19,5.55,3.4c3.45-1.2,4.1-7.23,7.74-7.1a3.89,3.89,0,0,1,2.4,1.09c3.93,3.55,1.74,10.27-2,14s-8.76,6.44-11.13,11.17c-1.89,3.8-1.72,8.25-1.54,12.49.11,2.4,0,5.21-1.91,6.63-7.28,5.33-9.71-8.31-10-12C116.84,302.12,115.77,294.55,112,288.05Z" transform="translate(0 -19.95)" fill="#24a200"/><path d="M369.51,284.87c-4.12-3.32-8.76-6-12.7-9.52s-7.25-8.23-7.52-13.52,3.4-11,8.67-11.47c3.07-.3,6.93.81,8.72-1.71a6.41,6.41,0,0,0,.83-3.73c.09-8-.72-16.11.94-23.93s6.44-15.63,14.05-18.1c2.55-.83,5.6-.93,7.67.78,3.07,2.56,2.33,7.36,1.48,11.26a150,150,0,0,0-3.48,35.41c.12,5.9,1,12.53,5.64,16.12L402.5,256a3,3,0,0,1,2.05-1.37,2.52,2.52,0,0,1,1.63.82c4.74,4.46,2.29,12.54-1.72,17.68s-9.45,9.8-10.34,16.26c-.59,4.3,1,8.57,2.48,12.67,3,8.45-.46,25.52-9.24,12.65C380.38,304.47,380.34,293.61,369.51,284.87Z" transform="translate(0 -19.95)" fill="#24a200"/><path d="M360.41,333.15c-40.58-.52-94-17.26-142.65-8.13a304.47,304.47,0,0,1-67.46,4.41l-3.91-1c1.62-2.09,4.61-2.4,7.25-2.54l34.71-1.9c10.28-.57,20.17-.27,30.11-3.71a126.8,126.8,0,0,0,15.48-6.94l20.75-10.42c7.07-3.56,14.2-7.14,21.84-9.22,9.11-2.49,18.71-2.78,28.12-2a93.2,93.2,0,0,1,22,4.21,72.48,72.48,0,0,1,34.14,24.25,12.49,12.49,0,0,1,2.75,5.19C364.07,328.21,362.63,331.12,360.41,333.15Z" transform="translate(0 -19.95)" fill="#e9d96f" opacity="0.27" style="isolation:isolate"/><path d="M351.77,148.58s4.14-.19,6.09-2.81a42,42,0,0,1,6.1-5.92,2.93,2.93,0,0,1,2.36,2.51,18.17,18.17,0,0,1,2.75,1.79c1.58,1.21,2.76,6.06,2.36,7.89a52.65,52.65,0,0,1-2.23,6.16s-5.19,3.54-9.8,1.18a14.39,14.39,0,0,0-8.72-1.51S353.6,150.17,351.77,148.58Z" transform="translate(0 -19.95)" fill="url(#linear-gradient-22)"/><path d="M301.4,97.6s9.56,8,11.79,15.39,2.49,22.3-18.68,30.16-65.82,23.79-83.83,12.31-9.65-40-9.65-40,2.92-8.85,11.08-8.43,18.29,4.23,28.79,1.12,27.48-9.33,33.66-9.6S301.4,97.6,301.4,97.6Z" transform="translate(0 -19.95)" fill="#e9d96f"/><path d="M294.51,143.15c-21.17,7.86-65.82,23.79-83.83,12.31-11.52-7.35-12.25-21.68-11.29-31.06.87,7.4,3.8,15.13,11.29,19.9,18,11.47,62.66-4.45,83.83-12.31,12.23-4.54,17.31-11.42,19-17.85C315.4,121.88,314.64,135.67,294.51,143.15Z" transform="translate(0 -19.95)" fill="url(#linear-gradient-23)"/><path d="M289.63,114.33a11.84,11.84,0,0,1,11.22.12c6.24,3.21,11.95,22.61,27,26.62s24,6.53,24,6.53,2.79,7.44,0,10.5-33.24,1-45.93-8.39C295.67,142.22,272.49,126.78,289.63,114.33Z" transform="translate(0 -19.95)" fill="#e9d96f"/><path d="M353,154.14a5.89,5.89,0,0,1-1.24,4c-2.8,3.05-33.24,1-45.93-8.39-9.33-6.87-29.59-20.42-19.67-32.22-2.53,10.57,13.94,21.65,22.07,27.65C319.93,153.76,346.67,156.21,353,154.14Z" transform="translate(0 -19.95)" fill="url(#linear-gradient-24)"/><path d="M297.08,97.74s5.78-3.48,7.28-2.59S311.63,106,311.63,106v4.91Z" transform="translate(0 -19.95)" fill="#e9d96f"/><path d="M297.08,97.74s5.78-3.48,7.28-2.59S311.63,106,311.63,106v4.91Z" transform="translate(0 -19.95)" fill="url(#linear-gradient-25)"/><path d="M279.32,76.09l3.1-.43a1.51,1.51,0,0,1,1.69,1.21l.13.71A1.5,1.5,0,0,1,283,79.35l-2.73.34Z" transform="translate(0 -19.95)" fill="#e9d96f"/><circle cx="350.68" cy="161.3" r="7.9" fill="url(#linear-gradient-26)" style="isolation:isolate"/><circle cx="361.09" cy="75.06" r="7.9" fill="url(#linear-gradient-27)" style="isolation:isolate"/><circle cx="259.33" cy="31.54" r="9.18" fill="url(#linear-gradient-28)" style="isolation:isolate"/><circle cx="218.74" cy="34.06" r="9.18" fill="url(#linear-gradient-29)" style="isolation:isolate"/><path d="M316.4,59.26C310.86,62,307,54.17,301.25,52a9.64,9.64,0,0,0-3-.9,2.39,2.39,0,0,0-2.49,1.52c-.35,1.33.93,2.47,2,3.38s2,2.53,1,3.54a3.5,3.5,0,0,1-1.74.74c-1.7.44-3.41,1.76-3.38,3.51,0,2.35,2.82,3.44,4.6,5a2,2,0,0,1,.74,1c.32,1.24-1.31,2.37-1,3.6.22.79,1.15,1.14,2,1.25,3.11.42,6.28-.8,9.36-.24a31.1,31.1,0,0,1,5.28,2c1.75.66,3.79,1,5.47.19.88-.44,1.59-1.17,2.46-1.63a9.29,9.29,0,0,1,4.06-.75l12.3-.38c3.08-.09,7.48-3.63.77-11.6C335.22,56.91,321.43,56.76,316.4,59.26Z" transform="translate(0 -19.95)" fill="#052326"/><path d="M173.91,98.59v.59A.68.68,0,0,1,173.91,98.59Z" transform="translate(0 -19.95)" fill="#e9d96f"/><path d="M250.14,107.12s41.33-9,56.78,14.24l4.9,7.18,2-4.56s1-10.68-12.61-19.12a66,66,0,0,0-26.95-9.43l-49,9.43-2.52,12.63L240,139.85s34.51,11.31,53.16,0L289.31,136a81.3,81.3,0,0,1-45.2,0l-6.76-18.54Z" transform="translate(0 -19.95)" fill="#e9d96f"/><path d="M250.14,107.12s41.33-9,56.78,14.24l4.9,7.18,2-4.56s1-10.68-12.61-19.12a66,66,0,0,0-26.95-9.43l-49,9.43-2.52,12.63L240,139.85s34.51,11.31,53.16,0L289.31,136a81.3,81.3,0,0,1-45.2,0l-6.76-18.54Z" transform="translate(0 -19.95)" fill="url(#linear-gradient-30)"/></svg>